<svg width="24" height="25" viewBox="0 0 24 25" fill="none" xmlns="http://www.w3.org/2000/svg">
<path id="Vector" d="M20.4832 3.7394C18.8046 2.06215 16.6662 0.92014 14.3384 0.457784C12.0106 -0.00457248 9.59792 0.233488 7.40545 1.14186C5.21298 2.05024 3.33919 3.58813 2.02103 5.56106C0.70288 7.534 -0.000444302 9.85337 2.10574e-07 12.2259C-1.92539e-07 15.4079 1.26408 18.4598 3.51432 20.7104C5.76456 22.961 8.81676 24.2262 11.9999 24.2278C13.575 24.2278 15.135 23.9201 16.592 23.3218C18.044 22.7087 19.3649 21.8229 20.4832 20.7124C21.5981 19.598 22.4826 18.275 23.086 16.8188C23.6894 15.3627 24 13.802 24 12.2259C24 10.6498 23.6894 9.08908 23.086 7.63295C22.4826 6.17683 21.5981 4.85379 20.4832 3.7394ZM19.6373 19.8547C17.9093 21.5896 15.6419 22.6846 13.2083 22.9593V15.0346H15.4802C15.8007 15.0346 16.1081 14.9073 16.3347 14.6808C16.5613 14.4542 16.6887 14.1469 16.6887 13.8265C16.6887 13.5062 16.5613 13.1989 16.3347 12.9723C16.1081 12.7458 15.8007 12.6185 15.4802 12.6185H13.2083V9.30847C13.2083 8.98808 13.3356 8.68081 13.5623 8.45426C13.7889 8.2277 14.0963 8.10043 14.4168 8.10043H15.8669C16.1874 8.10043 16.4948 7.97315 16.7214 7.7466C16.948 7.52005 17.0754 7.21278 17.0754 6.89239C17.0754 6.57199 16.948 6.26472 16.7214 6.03817C16.4948 5.81162 16.1874 5.68434 15.8669 5.68434H13.8125C13.0113 5.68434 12.2429 6.00253 11.6763 6.56891C11.1097 7.13529 10.7914 7.90347 10.7914 8.70445V12.6185H8.53164C8.21113 12.6185 7.90376 12.7458 7.67713 12.9723C7.45051 13.1989 7.32319 13.5062 7.32319 13.8265C7.32319 14.1469 7.45051 14.4542 7.67713 14.6808C7.90376 14.9073 8.21113 15.0346 8.53164 15.0346H10.7914V22.9593C8.54721 22.7034 6.44015 21.7491 4.76787 20.2312C3.09558 18.7133 1.94259 16.7086 1.47177 14.5001C1.00094 12.2917 1.23607 9.99124 2.14394 7.92364C3.05182 5.85604 4.58655 4.12583 6.53135 2.97739C8.47616 1.82895 10.7327 1.32034 12.9824 1.52339C15.232 1.72644 17.361 2.63089 19.0685 4.10899C20.7761 5.58709 21.976 7.56413 22.4987 9.76085C23.0214 11.9576 22.8406 14.263 21.9816 16.3514C21.4335 17.6594 20.6375 18.849 19.6373 19.8547Z" fill="black"/>
</svg>
