<svg width="18" height="19" viewBox="0 0 18 19" fill="none" xmlns="http://www.w3.org/2000/svg">
<path id="Vector" d="M15.3352 15.5668H12.6697V11.39C12.6697 10.394 12.6495 9.11228 11.2807 9.11228C9.89102 9.11228 9.67872 10.1961 9.67872 11.3165V15.5668H7.01322V6.97778H9.57372V8.14848H9.60822C9.96602 7.47348 10.836 6.76103 12.1357 6.76103C14.8365 6.76103 15.336 8.53858 15.336 10.8523L15.3352 15.5668ZM4.00275 5.80253C3.14475 5.80253 2.4555 5.10803 2.4555 4.25378C2.4555 3.40028 3.1455 2.70653 4.00275 2.70653C4.85775 2.70653 5.55075 3.40028 5.55075 4.25378C5.55075 5.10803 4.857 5.80253 4.00275 5.80253ZM5.33925 15.5668H2.66625V6.97778H5.33925V15.5668ZM16.6687 0.227783H1.32825C0.594 0.227783 0 0.808283 0 1.52453V16.9311C0 17.648 0.594 18.2278 1.32825 18.2278H16.6665C17.4 18.2278 18 17.648 18 16.9311V1.52453C18 0.808283 17.4 0.227783 16.6665 0.227783H16.6687Z" fill="black"/>
</svg>
