<svg width="20" height="21" viewBox="0 0 20 21" fill="none" xmlns="http://www.w3.org/2000/svg">
<path id="Vector" d="M7.04 19.7678C8 20.0578 8.97 20.2278 10 20.2278C12.6522 20.2278 15.1957 19.1742 17.0711 17.2989C18.9464 15.4235 20 12.8799 20 10.2278C20 8.91456 19.7413 7.6142 19.2388 6.40095C18.7362 5.18769 17.9997 4.0853 17.0711 3.15672C16.1425 2.22813 15.0401 1.49153 13.8268 0.988988C12.6136 0.486441 11.3132 0.227783 10 0.227783C8.68678 0.227783 7.38642 0.486441 6.17317 0.988988C4.95991 1.49153 3.85752 2.22813 2.92893 3.15672C1.05357 5.03208 0 7.57562 0 10.2278C0 14.4778 2.67 18.1278 6.44 19.5678C6.35 18.7878 6.26 17.4978 6.44 16.6078L7.59 11.6678C7.59 11.6678 7.3 11.0878 7.3 10.1678C7.3 8.78778 8.16 7.75778 9.14 7.75778C10 7.75778 10.4 8.38778 10.4 9.19778C10.4 10.0578 9.83 11.2878 9.54 12.4678C9.37 13.4478 10.06 14.3078 11.06 14.3078C12.84 14.3078 14.22 12.4078 14.22 9.72778C14.22 7.32778 12.5 5.68778 10.03 5.68778C7.21 5.68778 5.55 7.78778 5.55 9.99778C5.55 10.8578 5.83 11.7278 6.29 12.2978C6.38 12.3578 6.38 12.4378 6.35 12.5878L6.06 13.6778C6.06 13.8478 5.95 13.9078 5.78 13.7878C4.5 13.2278 3.76 11.4078 3.76 9.93778C3.76 6.77778 6 3.90778 10.32 3.90778C13.76 3.90778 16.44 6.37778 16.44 9.65778C16.44 13.0978 14.31 15.8578 11.26 15.8578C10.29 15.8578 9.34 15.3378 9 14.7278L8.33 17.0978C8.1 17.9578 7.47 19.1078 7.04 19.7978V19.7678Z" fill="black"/>
</svg>
