<svg width="24" height="25" viewBox="0 0 24 25" fill="none" xmlns="http://www.w3.org/2000/svg">
<g id="whatsapp-line">
<path id="Vector" d="M7.25654 18.7222L7.98127 19.1448C9.19202 19.8508 10.568 20.2278 12.0039 20.2278C16.4222 20.2278 20.0039 16.6461 20.0039 12.2278C20.0039 7.8095 16.4222 4.22778 12.0039 4.22778C7.58563 4.22778 4.00391 7.8095 4.00391 12.2278C4.00391 13.6641 4.38114 15.0406 5.08759 16.2516L5.50997 16.9756L4.85648 19.3772L7.25654 18.7222ZM2.00809 22.2278L3.36005 17.2593C2.49787 15.7814 2.00391 14.0623 2.00391 12.2278C2.00391 6.70493 6.48106 2.22778 12.0039 2.22778C17.5267 2.22778 22.0039 6.70493 22.0039 12.2278C22.0039 17.7506 17.5267 22.2278 12.0039 22.2278C10.17 22.2278 8.45144 21.7342 6.97379 20.8725L2.00809 22.2278ZM8.39525 7.53611C8.52913 7.5267 8.66346 7.52526 8.79752 7.5318C8.85168 7.53536 8.90558 7.54162 8.95952 7.54785C9.11878 7.56624 9.29391 7.66323 9.35279 7.79672C9.65111 8.47314 9.94057 9.15343 10.2211 9.83741C10.283 9.9884 10.2457 10.1841 10.1279 10.3735C10.0681 10.4706 9.97421 10.6068 9.86541 10.7461C9.75232 10.8908 9.50892 11.1569 9.50892 11.1569C9.50892 11.1569 9.41031 11.2751 9.44748 11.4222C9.46196 11.4778 9.50814 11.5588 9.55001 11.6269C9.5732 11.6646 9.59473 11.6983 9.6087 11.7216C9.86462 12.1489 10.2086 12.5821 10.6288 12.9894C10.7492 13.1061 10.866 13.2252 10.9916 13.3358C11.4599 13.7487 11.9897 14.0861 12.5619 14.336L12.567 14.3383C12.6515 14.3747 12.6949 14.3946 12.8186 14.4471C12.881 14.4735 12.9448 14.4963 13.0103 14.5136C13.034 14.5198 13.0583 14.5233 13.0827 14.525C13.2444 14.5347 13.3379 14.431 13.3778 14.3833C14.1013 13.5068 14.1675 13.4496 14.1725 13.45V13.4516C14.2676 13.3514 14.4171 13.3166 14.5505 13.3248C14.6114 13.3285 14.672 13.3402 14.7274 13.3655C15.2592 13.6081 16.1287 13.9865 16.1287 13.9865L16.7102 14.2479C16.8076 14.2949 16.8965 14.4056 16.9008 14.5132C16.9034 14.5801 16.9106 14.6881 16.8867 14.8857C16.8554 15.1444 16.7767 15.4559 16.6985 15.6191C16.6435 15.7336 16.5723 15.8352 16.4895 15.9212C16.3772 16.0378 16.2938 16.1086 16.1588 16.2092C16.0766 16.2704 16.034 16.2992 16.034 16.2992C15.8951 16.3868 15.8168 16.4306 15.6513 16.5187C15.3939 16.6558 15.1095 16.7346 14.8182 16.7496C14.6325 16.7591 14.4473 16.7725 14.2618 16.7625C14.2536 16.762 13.6936 16.676 13.6936 16.676C12.2717 16.302 10.9567 15.6014 9.85327 14.6298C9.62766 14.4312 9.41843 14.2163 9.20487 14.0037C8.31581 13.1186 7.64275 12.1642 7.23462 11.2614C7.03336 10.8162 6.90592 10.3394 6.90391 9.84876C6.90022 9.24183 7.09892 8.65098 7.46862 8.16964C7.5415 8.07475 7.61067 7.97633 7.73002 7.86364C7.85641 7.74429 7.93685 7.68022 8.0235 7.63589C8.139 7.5768 8.26586 7.5452 8.39525 7.53611Z" fill="black"/>
</g>
</svg>
